<svg id="visual" viewBox="0 0 960 540" width="960" height="540" xmlns="http://www.w3.org/2000/svg" xmlns:xlink="http://www.w3.org/1999/xlink" version="1.1"><rect x="0" y="0" width="960" height="540" fill="#001220"></rect><path d="M0 338L32 345.7C64 353.3 128 368.7 192 364.7C256 360.7 320 337.3 384 332.2C448 327 512 340 576 347.8C640 355.7 704 358.3 768 358C832 357.7 896 354.3 928 352.7L960 351L960 541L928 541C896 541 832 541 768 541C704 541 640 541 576 541C512 541 448 541 384 541C320 541 256 541 192 541C128 541 64 541 32 541L0 541Z" fill="#fbb33e"></path><path d="M0 400L32 403.8C64 407.7 128 415.3 192 408.7C256 402 320 381 384 369.2C448 357.3 512 354.7 576 359.2C640 363.7 704 375.3 768 373.2C832 371 896 355 928 347L960 339L960 541L928 541C896 541 832 541 768 541C704 541 640 541 576 541C512 541 448 541 384 541C320 541 256 541 192 541C128 541 64 541 32 541L0 541Z" fill="#fdc537"></path><path d="M0 430L32 433.5C64 437 128 444 192 439.8C256 435.7 320 420.3 384 420.2C448 420 512 435 576 438.8C640 442.7 704 435.3 768 428.3C832 421.3 896 414.7 928 411.3L960 408L960 541L928 541C896 541 832 541 768 541C704 541 640 541 576 541C512 541 448 541 384 541C320 541 256 541 192 541C128 541 64 541 32 541L0 541Z" fill="#fcd932"></path><path d="M0 489L32 489.2C64 489.3 128 489.7 192 487.5C256 485.3 320 480.7 384 476.2C448 471.7 512 467.3 576 467.7C640 468 704 473 768 477.3C832 481.7 896 485.3 928 487.2L960 489L960 541L928 541C896 541 832 541 768 541C704 541 640 541 576 541C512 541 448 541 384 541C320 541 256 541 192 541C128 541 64 541 32 541L0 541Z" fill="#f6ec32"></path></svg>