<svg id="visual" viewBox="0 0 540 960" width="540" height="960" xmlns="http://www.w3.org/2000/svg" xmlns:xlink="http://www.w3.org/1999/xlink" version="1.1"><rect x="0" y="0" width="540" height="960" fill="#001220"></rect><path d="M0 721L18 731.3C36 741.7 72 762.3 108 771.3C144 780.3 180 777.7 216 766.8C252 756 288 737 324 732.5C360 728 396 738 432 740.5C468 743 504 738 522 735.5L540 733L540 961L522 961C504 961 468 961 432 961C396 961 360 961 324 961C288 961 252 961 216 961C180 961 144 961 108 961C72 961 36 961 18 961L0 961Z" fill="#fbb33e"></path><path d="M0 819L18 823.5C36 828 72 837 108 834.5C144 832 180 818 216 808.7C252 799.3 288 794.7 324 802C360 809.3 396 828.7 432 826.3C468 824 504 800 522 788L540 776L540 961L522 961C504 961 468 961 432 961C396 961 360 961 324 961C288 961 252 961 216 961C180 961 144 961 108 961C72 961 36 961 18 961L0 961Z" fill="#fdc537"></path><path d="M0 877L18 870.7C36 864.3 72 851.7 108 851C144 850.3 180 861.7 216 859.8C252 858 288 843 324 838.8C360 834.7 396 841.3 432 849.8C468 858.3 504 868.7 522 873.8L540 879L540 961L522 961C504 961 468 961 432 961C396 961 360 961 324 961C288 961 252 961 216 961C180 961 144 961 108 961C72 961 36 961 18 961L0 961Z" fill="#fcd932"></path><path d="M0 927L18 925.5C36 924 72 921 108 917.3C144 913.7 180 909.3 216 904.2C252 899 288 893 324 896.7C360 900.3 396 913.7 432 919.7C468 925.7 504 924.3 522 923.7L540 923L540 961L522 961C504 961 468 961 432 961C396 961 360 961 324 961C288 961 252 961 216 961C180 961 144 961 108 961C72 961 36 961 18 961L0 961Z" fill="#f6ec32"></path></svg>